; NON-PLATED HOLES START AT T1
; THROUGH (PLATED) HOLES START AT T100
M48
INCH
T1C0.125984
T100C0.038000
T101C0.037222
T102C0.040000
T103C0.037250
%
T1
X028639Y026651
X001039Y000951
X028639Y001051
X001039Y026551
T100
X011639Y019651
X011639Y021651
X011639Y018651
X011639Y017651
X011639Y020651
T101
X020439Y019651
X014439Y012651
X014439Y021651
X020439Y021651
X014439Y017651
X020439Y018651
X014439Y020651
X020439Y012651
X014439Y024651
X020439Y011651
X014439Y011651
X014439Y023651
X020439Y022651
X014439Y019651
X014439Y022651
X020439Y024651
X014439Y018651
X020439Y016651
X014439Y016651
X020439Y020651
X020439Y023651
X020439Y017651
T102
X026539Y024651
X005639Y010651
X005639Y003651
X026539Y010051
X011639Y011651
X011639Y007651
X005639Y007651
X026539Y002051
X026539Y022651
X005639Y015651
X002739Y012651
X026539Y020651
X011639Y009651
X002739Y008651
X026539Y019651
X005639Y001651
X002739Y009651
X026539Y021651
X002739Y003651
X002739Y004651
X005639Y002651
X026539Y018651
X011639Y006651
X005639Y013651
X005639Y009651
X026539Y003051
X002739Y005651
X026539Y004051
X026539Y012051
X026539Y014651
X011639Y012651
X011639Y005651
X026539Y008051
X005639Y016651
X026539Y005051
X026539Y016651
X026539Y017651
X005639Y005651
X005639Y004651
X026539Y009051
X002739Y010651
X005639Y011651
X005639Y006651
X002739Y013651
X002739Y002651
X026539Y007051
X026539Y006051
X002739Y001651
X002739Y014651
X002739Y007651
X002739Y006651
X011639Y010651
X005639Y014651
X026539Y023651
X011639Y008651
X005639Y008651
X026539Y025651
X026539Y011051
X002739Y011651
X026539Y015651
X026539Y013051
X005639Y012651
T103
X014439Y009651
X020439Y008651
X014439Y010651
X014439Y013651
X020439Y010651
X020439Y009651
X020439Y013651
X014439Y015651
X014439Y014651
X020439Y014651
X014439Y008651
X020439Y015651
T00
M30
